# xmcd
#
# Track frame offsets:
#	150
#	12736
#	26704
#	45017
#	49819
#	51633
#	79899
#	91115
#	106895
#	118549
#	123192
#	137872
#	150066
#	157006
#	169393
#	180885
#	200199
#	213743
#	220260
#	234407
#	252621
#
# Disc length: 3537 seconds
#
# Revision: 2
# Processed by: cddbd v1.5.2PL0 Copyright (c) Steve Scherf et al.
# Submitted via: EasyCDDAExtractor 16.1.0.1
#
DISCID=260dcf15
DTITLE=Kunteynir - В Гавно
DYEAR=2005
DGENRE=Abstract Hip-Hop - Trash
TTITLE0=Пьюк feat. SID
TTITLE1=Питуля
TTITLE2=В Гавно
TTITLE3=Е
TTITLE4=Подставить Стул
TTITLE5=Чиширский Микс
TTITLE6=В Рот
TTITLE7=Анэрвотэр
TTITLE8=Hardcore. Screamo
TTITLE9=Иду
TTITLE10=История
TTITLE11=Мой Срок Кончается
TTITLE12=Ненадоинтро
TTITLE13=Космос feat. Mex
TTITLE14=Он Ведь Не Будет
TTITLE15=Микс – Даун
TTITLE16=Freestyle
TTITLE17=Придел
TTITLE18=Свистулька
TTITLE19=Bonus Freestyle
TTITLE20=Bonus Video
EXTD=
EXTT0=
EXTT1=
EXTT2=
EXTT3=
EXTT4=
EXTT5=
EXTT6=
EXTT7=
EXTT8=
EXTT9=
EXTT10=
EXTT11=
EXTT12=
EXTT13=
EXTT14=
EXTT15=
EXTT16=
EXTT17=
EXTT18=
EXTT19=
EXTT20=
PLAYORDER=
